<svg width="400" height="250" viewBox="0 0 400 250" fill="none" xmlns="http://www.w3.org/2000/svg">
<path d="M0 31.4C0 20.7646 0 15.4469 1.9709 11.3425C3.93884 7.24432 7.24432 3.93884 11.3425 1.9709C15.4469 0 20.7646 0 31.4 0H368.6C379.235 0 384.553 0 388.657 1.9709C392.756 3.93884 396.061 7.24432 398.029 11.3425C400 15.4469 400 20.7646 400 31.4V218.6C400 229.235 400 234.553 398.029 238.657C396.061 242.756 392.756 246.061 388.657 248.029C384.553 250 379.235 250 368.6 250H31.4C20.7646 250 15.4469 250 11.3425 248.029C7.24432 246.061 3.93884 242.756 1.9709 238.657C0 234.553 0 229.235 0 218.6V31.4Z" fill="#DF146E"/>
<path d="M341.376 136.623L273.574 125.822L282.749 165.878L341.376 136.623ZM344.125 133.343L290.814 59.2385L273.4 122.268L344.125 133.343ZM270.099 121.407L214.235 50L287.392 58.7479L270.099 121.407ZM242.996 91.8112L212 62.5713H220.147L242.996 91.8112ZM360.769 97.3418L347.653 132.944L326.38 103.522L360.769 97.3418ZM291.02 165.387L342.496 144.708L344.678 138.143L291.02 165.387ZM248.086 203L270.142 125.562L281.321 175.958L248.086 203ZM363.913 97.6111L358.491 112.308L378 111.971L363.913 97.6111Z" fill="white"/>
<path d="M32 94.8734C33.0357 94.9583 34.086 95.1422 35.1947 95.1422C36.3034 95.1422 37.2078 94.9583 38.3894 94.8734V128.079C41.7592 122.519 46.0042 118.855 52.2477 118.855C63.5386 118.855 68.3817 129.692 68.3817 139.653C68.3817 151.579 61.8173 162.997 50.3076 162.997C48.0032 163.046 45.7288 162.483 43.7309 161.368C41.733 160.253 40.0876 158.63 38.9729 156.673C37.0473 158.314 35.3406 160.281 33.5171 162.063H32.0584L32 94.8734ZM38.2435 143.713C38.2435 153.39 42.474 160.139 49.4323 160.139C58.4621 160.139 61.3651 148.368 61.3651 140.02C61.3651 130.329 58.0682 122.703 50.2492 122.618C41.1173 122.547 38.2435 133.031 38.2435 143.727V143.713Z" fill="white"/>
<path d="M107.949 115.466L101.38 123.94C107.554 132.978 113.953 141.833 120.155 150.984L126.413 160.87V161.364C124.876 161.266 123.481 161.068 122.184 161.068C120.888 161.068 119.253 161.266 117.871 161.364C116.166 158.201 114.474 155.278 112.543 152.411L95.6297 127.343C95.2491 126.948 94.333 126.637 94.333 127.047V161.364C93.0926 161.266 92.0073 161.068 90.9361 161.068C89.8649 161.068 88.6246 161.266 87.5393 161.364V94.0282C88.6246 94.113 89.7944 94.3248 90.9361 94.3248C92.0778 94.3248 93.0926 94.113 94.333 94.0282V124.42C94.333 125.013 95.4888 124.618 96.2499 123.827C97.718 122.302 99.0924 120.689 100.366 118.997L119.379 94C120.38 94.0847 121.381 94.2966 122.466 94.2966C123.552 94.2966 124.383 94.0847 125.483 94L107.949 115.466ZM159.099 153.781C159.099 157.283 158.873 159.062 163.426 157.904V159.867C162.682 160.241 161.903 160.539 161.1 160.757C157.083 161.562 153.757 160.842 153.137 155.574L152.446 156.351C151.103 158.114 149.371 159.541 147.385 160.522C145.4 161.502 143.214 162.008 141.001 162C135.532 162 130.74 157.678 130.74 151.055C130.74 140.844 137.787 139.503 145.018 138.161C151.135 137.003 153.221 136.466 153.221 132.159C153.221 125.521 149.979 121.68 144.186 121.68C142.208 121.641 140.265 122.212 138.622 123.316C136.978 124.42 135.713 126.003 134.997 127.852H134.151V122.881C137.629 119.849 142.045 118.113 146.653 117.966C154.757 117.966 159.169 122.881 159.169 133.006L159.099 153.781ZM152.925 138.994L150.205 139.616C144.947 140.774 137.068 141.663 137.068 149.84C137.068 155.489 139.887 158.314 144.623 158.314C147.073 158.012 149.313 156.778 150.881 154.868C151.445 154.218 152.996 152.693 152.996 152.044L152.925 138.994ZM172.869 152.594C174.702 156.111 178.113 159.26 181.749 159.26C183.824 159.154 185.776 158.243 187.192 156.719C188.607 155.195 189.375 153.179 189.332 151.097C189.332 139.008 171.079 146.861 171.079 131.213C171.079 122.626 176.717 117.98 183.666 117.98C186.739 117.912 189.769 118.714 192.405 120.296C191.644 122.368 191.031 124.492 190.572 126.651H189.868C188.853 123.7 186.161 120.734 183.299 120.734C179.438 120.734 176.252 123.347 176.252 128.191C176.252 139.644 194.505 133.543 194.505 147.877C194.505 157.467 187.091 162 180.269 162C176.853 161.997 173.508 161.017 170.628 159.175C171.32 157.027 171.862 154.832 172.249 152.608L172.869 152.594ZM204.907 94.0282C205.936 94.113 206.937 94.2966 208.008 94.2966C209.079 94.2966 209.953 94.113 211.109 94.0282V126.637C213.815 121.172 218.057 117.966 223.554 117.966C232.519 117.966 236 124.123 236 135.421V161.364C234.83 161.266 233.928 161.096 232.899 161.096C231.87 161.096 230.813 161.28 229.798 161.364V137.469C229.798 127.583 227.811 122.598 221.229 122.598C214.266 122.598 211.109 127.626 211.109 136.932V161.364C209.953 161.266 209.037 161.096 208.008 161.096C206.979 161.096 205.95 161.28 204.907 161.364V94.0282Z" fill="#231F20"/>
</svg>
