<svg width="400" height="250" viewBox="0 0 400 250" fill="none" xmlns="http://www.w3.org/2000/svg">
<path d="M0 31.4C0 20.7646 0 15.4469 1.9709 11.3425C3.93884 7.24432 7.24432 3.93884 11.3425 1.9709C15.4469 0 20.7646 0 31.4 0H368.6C379.235 0 384.553 0 388.657 1.9709C392.756 3.93884 396.061 7.24432 398.029 11.3425C400 15.4469 400 20.7646 400 31.4V218.6C400 229.235 400 234.553 398.029 238.657C396.061 242.756 392.756 246.061 388.657 248.029C384.553 250 379.235 250 368.6 250H31.4C20.7646 250 15.4469 250 11.3425 248.029C7.24432 246.061 3.93884 242.756 1.9709 238.657C0 234.553 0 229.235 0 218.6V31.4Z" fill="url(#paint0_radial)"/>
<path d="M234.838 114.207H192.37C191.529 114.207 191.108 114.838 191.108 115.468V118.832C191.108 119.673 191.739 120.093 192.37 120.093H224.116V137.754C223.275 136.492 222.224 135.231 221.173 133.969C217.388 130.185 213.394 128.293 209.189 128.293C205.825 128.293 203.092 129.975 200.779 132.918C198.887 135.441 197.836 138.384 197.836 141.117C197.836 143.85 198.257 147.425 200.359 150.788C202.882 154.783 207.087 156.044 210.871 156.044C215.706 156.044 219.701 152.681 219.701 148.265C219.701 145.743 218.44 143.64 216.127 142.169L213.814 140.907V144.691C213.604 145.743 211.922 147.214 210.03 147.214C208.348 147.214 206.876 146.584 205.825 145.532C205.194 144.902 204.774 143.64 204.984 142.799C204.984 141.538 205.405 140.487 206.246 139.435C207.297 138.174 208.348 137.543 210.03 137.543C214.235 137.543 217.809 139.435 220.752 143.64C223.065 147.214 224.326 150.578 224.326 154.362V163.192L230.633 166.977C230.844 167.187 231.054 167.187 231.264 167.187C232.105 167.187 232.526 166.556 232.526 165.926V120.304H235.048C235.889 120.304 236.31 119.673 236.31 119.042V115.678C236.31 114.838 235.679 114.207 234.838 114.207Z" fill="white"/>
<path d="M319.775 114.207H265.953C265.113 114.207 264.692 114.838 264.692 115.468V121.355C259.436 115.889 254.811 113.156 250.606 113.156C246.611 113.156 243.248 113.997 240.304 116.309C237.571 118.412 235.889 121.145 235.889 124.298C235.889 133.759 246.401 133.549 249.134 132.287C249.555 132.077 250.186 131.657 250.816 131.657C252.919 131.657 253.76 133.339 253.76 134.81C253.76 136.913 250.606 138.805 246.822 138.805C244.719 138.805 243.458 138.174 242.617 136.913L240.935 134.39L239.884 137.333C239.674 137.964 239.253 138.805 239.253 139.856C239.253 141.958 240.304 144.061 242.407 145.953C244.299 147.635 246.611 148.476 249.134 148.476C253.129 148.476 256.493 147.004 258.595 144.061C260.487 141.748 261.328 139.015 261.328 135.861C261.328 134.179 260.697 132.287 259.226 130.185C257.544 127.662 255.442 126.401 253.129 126.401C252.288 126.401 251.237 126.611 250.186 127.031C249.765 127.242 248.924 127.452 248.714 127.452C248.293 127.452 247.663 127.242 247.242 126.611C246.822 126.19 246.401 125.56 246.401 124.509C246.401 122.196 248.504 119.883 252.288 119.883H252.498C255.021 119.883 257.544 121.145 259.857 123.457C261.749 125.349 263.22 127.242 264.482 129.344V162.772L270.789 166.556C270.999 166.766 271.209 166.766 271.42 166.766C272.261 166.766 272.681 166.136 272.681 165.505V120.304H282.352V149.527L289.921 152.68H290.341C290.972 152.68 291.603 152.26 291.603 151.419V151.209C292.864 142.589 296.648 136.702 302.955 133.128V134.81C302.955 136.072 302.955 139.225 303.166 140.907C303.166 141.958 303.166 142.589 303.376 143.22C303.376 146.584 303.796 151.629 304.848 155.414C306.95 162.562 310.524 164.244 313.047 164.244H313.257C314.729 164.244 315.99 163.823 316.831 162.982C317.252 162.562 317.882 161.721 317.882 160.249C317.882 158.988 317.672 157.936 317.252 157.096L316.621 156.044L315.36 156.255C314.098 156.675 313.467 156.675 313.467 156.465H313.257C312.837 156.465 312.837 156.465 312.626 156.255C312.206 156.044 311.365 155.414 310.734 153.101C310.314 151.419 310.104 149.106 310.104 147.845C310.104 138.384 311.996 131.236 315.149 129.764H315.36C315.78 129.554 316.201 129.134 316.201 128.503C316.201 128.293 316.201 128.083 315.99 127.872V127.662C314.519 124.719 311.365 122.616 307.16 121.565H306.319C302.955 122.196 298.961 124.509 293.915 128.713C292.654 129.764 291.392 130.816 290.341 131.867V120.304H319.775C320.616 120.304 321.036 119.673 321.036 119.042V115.678C321.246 114.838 320.616 114.207 319.775 114.207Z" fill="white"/>
<path d="M177.233 129.764C177.233 131.236 177.233 132.498 177.022 133.759C176.602 139.646 175.13 145.112 172.818 150.158C171.977 152.26 170.926 154.152 169.664 156.044C160.834 169.92 145.276 179.171 127.616 179.171C120.048 179.171 112.9 177.489 106.592 174.545C89.7734 166.766 78 149.527 78 129.764C78 110.212 89.3529 93.3931 105.541 85.4041C104.28 87.086 103.018 88.7679 101.967 90.66C101.967 90.8703 101.757 90.8703 101.757 91.0805C101.126 91.7112 100.496 92.1317 99.8648 92.7624C99.0239 93.3932 98.3932 94.2341 97.5522 94.8648L96.7112 95.7058C96.501 95.916 96.2908 96.3365 95.8703 96.5467C95.4498 97.1774 94.8191 97.8082 94.3986 98.4389C92.2962 101.172 90.6143 104.115 89.3529 107.269C89.1427 107.479 89.1427 107.9 88.9324 108.11C88.7222 108.53 88.7222 108.951 88.5119 109.161C88.5119 109.371 88.3017 109.582 88.3017 109.792C88.0915 110.422 87.8812 110.843 87.671 111.474C87.4607 111.894 87.4607 112.315 87.2505 112.525C87.2505 112.735 87.0403 112.945 87.0403 113.156C87.0403 113.576 86.83 113.997 86.83 114.417L86.1993 118.201C86.1993 118.622 86.1993 118.832 85.9891 119.253V124.298C85.9891 137.754 92.086 149.947 101.967 157.726C109.536 163.823 118.997 167.607 129.298 167.607C138.759 167.607 147.379 164.664 154.527 159.408C159.783 155.624 163.988 150.788 167.141 145.112C167.562 144.271 167.982 143.64 168.403 142.799C170.926 137.543 172.397 131.867 172.397 125.77V124.298C172.397 122.827 172.397 121.565 172.187 120.093L172.397 120.304C173.028 120.934 173.659 121.355 174.289 121.986C174.92 120.934 175.551 120.093 176.181 119.042C176.602 120.934 176.812 122.827 177.022 124.929C177.233 126.821 177.233 128.293 177.233 129.764Z" fill="white"/>
<path d="M133.503 90.0293L124.253 73C108.905 79.9379 98.3932 95.2853 98.3932 113.156C98.3932 122.196 101.126 130.605 105.752 137.543C105.331 135.231 105.331 132.918 105.331 130.395C105.541 112.104 117.104 96.5467 133.503 90.0293Z" fill="white"/>
<path d="M140.861 98.4389C144.646 97.3877 148.85 96.9672 152.845 96.9672C155.368 96.9672 158.101 97.1775 160.414 97.5979L159.783 74.8921C158.101 74.6819 156.209 74.4717 154.317 74.4717C145.907 74.4717 138.128 77.2048 131.821 81.6198L136.867 90.8703C127.827 94.0239 120.468 100.331 115.843 108.53C113.53 112.525 111.848 117.15 111.218 121.986C112.479 119.463 113.951 117.15 115.633 115.048C121.73 107.059 130.56 100.962 140.861 98.4389Z" fill="white"/>
<path d="M162.936 89.8191L163.357 100.541C159.783 99.4901 156.209 98.8594 152.214 98.8594C144.856 98.8594 137.918 100.962 131.821 104.536C124.252 109.161 118.366 116.519 115.422 125.139C118.366 121.145 121.94 117.571 126.145 114.837C132.242 110.843 139.6 108.53 147.379 108.53C153.265 108.53 158.732 109.792 163.777 112.104C167.562 113.786 170.925 116.099 173.869 119.042L179.756 110.212L187.324 98.6491C180.596 93.1829 172.187 89.8191 162.936 89.8191Z" fill="white"/>
<path d="M172.397 124.719V126.19C172.397 135.02 168.823 142.379 168.403 143.22C167.982 144.061 167.562 144.691 167.141 145.532C163.988 151.209 159.783 156.044 154.527 159.829C147.379 164.874 138.759 168.028 129.298 168.028C118.997 168.028 109.326 164.454 101.967 158.147C92.2962 150.158 85.989 138.174 85.989 124.719V119.673C85.989 119.252 85.989 119.042 86.1993 118.622L86.83 114.837C86.83 114.417 87.0402 113.997 87.0402 113.576C87.0402 113.366 87.2505 113.156 87.2505 112.945C87.4607 112.525 87.4607 112.104 87.6709 111.894C87.8812 111.263 88.0914 110.633 88.3017 110.212C88.3017 110.002 88.5119 109.792 88.5119 109.582C88.7221 109.161 88.7221 108.741 88.9324 108.53C89.1426 108.32 89.1426 107.9 89.3529 107.689C90.6143 104.536 92.5064 101.592 94.3986 98.8593C94.8191 98.2286 95.4498 97.5979 95.8703 96.9672C96.0805 96.757 96.2907 96.3365 96.7112 96.1262C96.9214 95.916 96.9215 95.7058 97.1317 95.7058C97.3419 95.4955 97.3419 95.2853 97.5522 95.2853C98.1829 94.4443 99.0238 93.8136 99.8648 93.1829C100.496 92.5522 101.126 92.1317 101.757 91.501C101.757 91.7112 101.547 91.7112 101.547 91.9215C101.547 92.1317 101.336 92.3419 101.336 92.3419C98.8136 97.3877 97.1317 103.485 96.501 109.792C96.2907 111.474 96.2907 113.156 96.2907 115.048C96.2907 137.754 109.536 156.044 125.934 156.044H127.616C129.929 156.044 132.242 155.624 134.554 155.203C145.697 152.26 153.896 141.958 153.896 129.975V129.344C153.686 122.196 150.743 115.678 145.907 111.263C149.271 111.263 152.635 111.894 155.788 112.735C161.885 114.207 167.351 117.15 172.187 120.934L172.397 121.145C172.187 121.986 172.397 123.457 172.397 124.719Z" fill="white"/>
<path d="M172.397 124.719V126.19C172.397 135.441 168.192 143.43 168.192 143.43C167.772 144.271 167.351 144.902 166.931 145.743C163.777 151.419 159.362 156.255 154.106 160.039C146.748 165.505 137.918 168.238 128.668 168.238C118.576 168.238 108.905 164.664 101.126 158.357C91.0348 150.158 85.1481 137.754 85.1481 124.719C85.1481 111.684 91.0348 99.2798 101.126 91.0805L101.547 90.66C101.547 90.8703 101.337 90.8703 101.337 91.0805C101.337 91.2908 101.126 91.2908 101.126 91.501C91.245 99.7003 85.5686 111.684 85.5686 124.719C85.5686 137.754 91.245 149.737 101.337 158.147C108.905 164.454 118.786 167.818 128.668 167.818C137.708 167.818 146.538 165.085 153.896 159.618C159.152 155.834 163.357 150.999 166.51 145.322C166.931 144.481 167.351 143.85 167.562 143.009C167.562 143.009 171.766 135.231 171.766 125.98V124.508C171.766 123.037 171.766 121.775 171.556 120.304V120.093L171.977 120.514C172.397 122.196 172.397 123.457 172.397 124.719Z" fill="white"/>
<defs>
<radialGradient id="paint0_radial" cx="0" cy="0" r="1" gradientUnits="userSpaceOnUse" gradientTransform="translate(200 125) rotate(90) scale(125 200)">
<stop offset="0.77291" stop-color="#F47221"/>
<stop offset="1" stop-color="#EA1D25"/>
</radialGradient>
</defs>
</svg>
