<svg width="400" height="250" viewBox="0 0 400 250" fill="none" xmlns="http://www.w3.org/2000/svg">
<path d="M0 31.4C0 20.7646 0 15.4469 1.9709 11.3425C3.93884 7.24432 7.24432 3.93884 11.3425 1.9709C15.4469 0 20.7646 0 31.4 0H368.6C379.235 0 384.553 0 388.657 1.9709C392.756 3.93884 396.061 7.24432 398.029 11.3425C400 15.4469 400 20.7646 400 31.4V218.6C400 229.235 400 234.553 398.029 238.657C396.061 242.756 392.756 246.061 388.657 248.029C384.553 250 379.235 250 368.6 250H31.4C20.7646 250 15.4469 250 11.3425 248.029C7.24432 246.061 3.93884 242.756 1.9709 238.657C0 234.553 0 229.235 0 218.6V31.4Z" fill="#F7CE03"/>
<path d="M346.743 112.349C344.372 112.396 341.998 112.407 339.628 112.346C338.654 112.32 338.375 112.695 338.351 113.602C338.288 115.912 338.152 118.22 338.028 120.89C337.391 120.206 336.976 119.762 336.564 119.315C334.681 117.268 332.643 115.412 330.103 114.192C327.378 112.883 324.697 112.77 322.033 114.405C320.158 115.555 318.174 116.539 316.524 118.024C316.014 118.482 315.688 118.521 315.128 118.025C311.036 114.413 306.087 113.029 300.775 112.814C296.716 112.65 292.648 112.675 288.583 112.666C279.604 112.648 270.624 112.664 261.646 112.656C260.669 112.655 259.712 112.521 260.52 114.031C261.237 115.373 261.868 116.769 262.423 118.185C262.773 119.076 263.304 119.352 264.219 119.309C265.599 119.243 266.986 119.291 268.332 119.291C268.368 119.544 268.398 119.61 268.377 119.647C268.266 119.84 268.162 120.041 268.022 120.214C265.395 123.47 264.876 127.112 266.032 131.06C266.365 132.196 266.693 133.333 267.034 134.467C268.417 139.051 270.18 143.531 270.822 148.323C271.601 154.137 270.118 158.958 263.968 161.004C263.777 161.068 263.571 161.2 263.666 161.553C265.604 162.354 267.584 163.172 269.563 163.989C269.984 164.163 270.394 164.252 270.874 164.182C275.519 163.505 279.448 159.867 280.451 155.25C281.17 151.931 280.874 148.614 280.256 145.325C279.17 139.545 277.256 133.994 275.469 128.41C275.196 127.551 274.958 126.711 275.192 125.764C276.132 121.968 278.66 119.935 282.535 119.943C283.098 119.944 283.672 120.007 284.227 119.931C285.503 119.756 285.874 120.29 285.882 121.533C285.915 126.5 286.083 131.466 286.12 136.433C286.165 142.814 286.162 149.196 286.103 155.577C286.091 156.809 286.363 157.269 287.682 157.213C290.163 157.105 292.654 157.097 295.133 157.216C296.508 157.28 296.804 156.82 296.798 155.519C296.743 146.37 296.778 137.223 296.762 128.074C296.757 125.637 297.108 123.237 297.332 120.822C297.398 120.107 297.645 119.862 298.338 119.806C301.443 119.552 304.43 119.925 307.204 121.414C308.868 122.307 309.752 123.708 309.916 125.622C310.198 128.926 308.662 131.601 305.53 133.134C303.745 134.007 301.802 134.284 299.577 134.614C301.271 136.705 302.82 138.612 304.361 140.525C304.697 140.943 305.138 140.916 305.594 140.869C308.946 140.52 312.188 139.809 314.949 137.741C315.606 137.247 316.011 137.223 316.68 137.729C319.431 139.817 322.681 140.507 326.027 140.871C326.472 140.919 326.92 140.957 327.264 140.531C328.81 138.617 330.371 136.713 332.083 134.612C330.088 134.305 328.367 134.102 326.757 133.43C322.736 131.751 321.07 128.582 322.078 124.495C322.643 122.203 324.103 121.051 326.461 121.077C328.713 121.101 330.65 121.944 332.263 123.485C335.313 126.396 336.492 130.083 336.508 134.192C336.534 141.25 336.535 148.31 336.493 155.368C336.487 156.484 336.701 156.983 337.96 156.936C340.555 156.841 343.156 156.869 345.752 156.927C346.796 156.951 347.222 156.729 347.236 155.55C347.394 141.553 346.638 127.539 347.986 113.567C348.086 112.534 347.655 112.331 346.743 112.349Z" fill="#0B5CAA"/>
<path d="M121.495 112.349C119.181 112.399 116.863 112.416 114.55 112.343C113.421 112.307 113.068 112.712 113.099 113.808C113.162 116.045 113.118 118.286 113.118 120.526C112.888 120.559 112.657 120.591 112.427 120.625C111.444 119.624 110.524 118.553 109.47 117.636C106.829 115.341 103.971 113.428 100.265 113.546C96.8452 113.657 94.217 115.559 91.7431 117.641C90.9131 118.339 90.4611 118.548 89.5733 117.721C87.9471 116.211 85.9703 115.215 83.8905 114.435C80.4065 113.126 76.8003 112.573 73.0911 112.719C72.0649 112.761 71.5486 112.555 71.6033 111.342C71.703 109.087 71.6821 106.824 71.6194 104.567C71.5679 102.687 72.5072 101.606 74.1849 101.049C76.025 100.44 77.9327 100.277 79.8612 100.277C85.1692 100.282 90.4772 100.289 95.7852 100.272C97.643 100.266 99.9094 100.831 101.244 99.9749C102.578 99.1175 102.982 96.811 103.794 95.1398C103.818 95.0883 103.839 95.0352 103.866 94.987C104.376 94.1103 104.264 93.7082 103.112 93.7146C94.4164 93.7565 85.7145 93.5844 77.0239 93.816C67.3456 94.0717 61.3315 100.168 61.235 109.865C61.0838 125.112 61.1996 140.361 61.1642 155.608C61.1626 156.687 61.5454 156.944 62.5395 156.925C65.2481 156.873 67.9601 156.877 70.6704 156.925C71.6001 156.941 71.962 156.687 71.9523 155.694C71.8365 144.123 72.1244 132.548 71.7802 120.978C71.7609 120.348 71.7432 119.886 72.5684 119.82C75.9494 119.555 79.2275 119.84 82.245 121.551C84.7253 122.958 84.8845 125.305 84.6256 127.758C84.3923 129.989 82.8562 131.051 80.8842 131.628C79.1969 132.124 77.4533 132.323 75.7081 132.449C74.8202 132.511 74.4197 132.654 74.9956 133.626C76.3515 135.905 77.664 138.212 78.9396 140.538C79.3417 141.269 79.8709 141.376 80.614 141.306C83.8664 141.006 86.9852 140.271 89.6456 138.286C90.4547 137.681 90.9019 137.794 91.6546 138.334C94.3939 140.308 97.5594 141.062 100.874 141.326C101.526 141.377 101.931 141.17 102.25 140.605C103.578 138.244 104.913 135.887 106.289 133.554C106.787 132.708 106.52 132.529 105.655 132.457C104.251 132.339 102.846 132.159 101.463 131.895C96.7954 131.004 95.7128 128.394 97.138 123.723C97.5819 122.265 98.6757 121.382 100.225 121.17C102.803 120.818 105.028 121.636 106.914 123.354C110.088 126.245 111.301 130.007 111.344 134.155C111.42 141.269 111.386 148.385 111.342 155.501C111.336 156.579 111.592 156.98 112.737 156.935C114.992 156.844 117.254 156.909 119.512 156.909C122.068 156.907 122.036 156.907 122.073 154.432C122.277 140.837 121.486 127.223 122.809 113.65C122.922 112.51 122.468 112.328 121.495 112.349Z" fill="#0B5CAA"/>
<path d="M233.993 148.123C228.498 145.485 223.345 142.95 219.502 138.479C216.5 134.987 216.648 131.868 219.902 128.64C223.2 125.37 227.141 123.33 231.763 122.651C233.094 122.457 233.766 122.642 233.735 124.331C233.607 131.54 233.652 138.752 233.99 145.96C234.018 146.573 233.993 147.187 233.993 148.123ZM246.576 113.06C244.707 112.976 244.25 112.278 244.504 110.654C244.538 110.433 244.511 110.203 244.506 109.978C244.3 100.327 238.422 94.231 228.786 93.7919C225.688 93.6503 222.577 93.734 219.473 93.7307C213.883 93.7243 208.294 93.75 202.704 93.7131C201.545 93.705 201.292 93.9785 201.863 95.0433C202.528 96.285 203.152 97.5654 203.626 98.8875C204.044 100.049 204.744 100.313 205.904 100.303C212.452 100.252 219.002 100.282 225.551 100.276C227.536 100.274 229.507 100.395 231.405 101.011C233.367 101.648 234.041 102.593 234.054 104.617C234.07 106.819 233.993 109.024 234.084 111.221C234.134 112.392 233.689 112.754 232.587 112.918C230.303 113.258 228.008 113.629 225.777 114.22C219.631 115.844 213.977 118.54 210.403 123.994C205.963 130.773 205.358 137.087 212.68 142.677C217.863 146.634 223.446 149.896 229.05 153.179C233.621 155.855 238.324 157.435 243.655 156.719C243.711 156.713 243.769 156.711 243.824 156.719C245.064 156.917 245.349 156.368 245.22 155.194C244.61 149.688 244.573 144.157 244.625 139.568C244.625 133.938 244.622 129.253 244.625 124.567C244.626 122.579 244.824 122.436 246.777 122.955C253.307 124.689 255.546 131.075 251.499 136.433C251.16 136.883 250.827 137.358 250.406 137.72C249.634 138.382 249.825 138.757 250.644 139.162C252.514 140.089 254.392 141.011 256.203 142.045C257.197 142.611 257.652 142.36 258.162 141.427C259.304 139.339 260.259 137.186 260.986 134.919C263.928 125.744 258.048 113.576 246.576 113.06Z" fill="#0B5CAA"/>
<path d="M192.031 140.488C192.031 142.854 192.029 145.218 192.031 147.583C192.031 148.247 192.092 148.921 191.057 148.385C186.904 146.238 182.721 144.129 179.13 141.086C175.827 138.289 176.518 134.594 180.615 133.065C184.081 131.77 187.726 132.185 191.316 132.156C192.203 132.149 192.021 132.868 192.024 133.394C192.039 135.759 192.031 138.123 192.031 140.488ZM202.854 140.687C202.854 136.343 203.007 131.993 202.811 127.658C202.622 123.475 201.151 119.706 197.937 116.838C194.553 113.816 190.401 112.883 186.018 112.796C182.125 112.721 178.231 112.78 174.337 112.78C170.162 112.778 165.984 112.82 161.809 112.756C160.421 112.735 160.276 113.126 160.89 114.268C161.53 115.458 162.089 116.7 162.574 117.961C162.978 119.011 163.596 119.331 164.735 119.323C171.223 119.272 177.713 119.304 184.202 119.343C186.177 119.354 188.149 119.508 190.042 120.148C191.429 120.62 192.335 121.479 192.548 123.028C192.719 124.265 192.402 124.823 191.057 124.692C190.108 124.601 189.138 124.665 188.181 124.721C182.756 125.04 177.364 125.543 172.438 128.143C169 129.959 166.763 132.693 166.023 136.586C165.544 139.111 165.954 141.303 168.111 142.936C169.37 143.888 170.588 144.906 171.913 145.754C178.833 150.184 186.325 153.463 193.88 156.614C194.369 156.819 194.853 156.87 195.363 156.87C197.676 156.869 199.993 156.825 202.304 156.891C203.345 156.92 203.707 156.637 203.547 155.554C202.819 150.623 202.997 145.649 202.854 140.687Z" fill="#0B5CAA"/>
<path d="M155.449 134.351C154.969 134.133 154.154 134.155 154.117 133.547C154.081 132.966 154.839 132.749 155.297 132.455C157.527 131.023 159.46 129.373 160.199 126.664C161.735 121.041 158.062 114.652 152.008 112.492C149.528 111.607 146.964 111.313 144.752 111.447C138.798 111.463 135.594 112.371 132.386 114.836C126.395 119.441 126.457 126.402 132.499 130.3C133.321 130.83 133.948 130.88 134.788 130.327C136.483 129.209 138.219 128.143 140.009 127.187C141.194 126.555 141.12 126.246 140.097 125.45C137.39 123.343 137.107 120.724 139.179 118.469C141.558 115.876 146.423 115.786 149.008 118.286C151.691 120.879 151.918 125.73 149.464 128.217C148.008 129.69 146.197 130.607 144.336 131.443C140.937 132.971 140.996 132.939 142.788 136.127C143.4 137.214 144.107 137.631 145.309 137.62C147.123 137.604 148.92 137.866 150.588 138.633C153.945 140.177 155.101 143.846 153.2 146.825C151.751 149.093 149.008 150.245 146.324 149.809C143.76 149.392 141.701 148.069 139.85 146.364C136.364 143.153 132.917 139.901 129.435 136.687C128.365 135.699 127.22 133.729 126.221 133.996C124.965 134.332 125.195 136.603 124.532 137.933C124.072 138.857 124.407 139.457 124.979 140.195C129.221 145.662 134.225 150.362 139.406 154.917C142.983 158.06 147.097 159.26 151.723 159.12C158.289 158.919 163.029 155.258 164.054 149.629C165.223 143.196 161.881 137.282 155.449 134.351Z" fill="#0B5CAA"/>
<path d="M183.575 157.674C181.49 155.924 179.293 154.363 176.83 153.19C176.576 153.069 176.316 152.963 176.089 152.865C175.569 152.879 175.42 153.298 175.193 153.595C174.308 154.765 173.486 155.984 172.555 157.115C171.921 157.883 172.138 158.207 172.955 158.553C174.31 159.128 175.461 160.076 176.737 160.782C178.185 161.583 179.087 164.067 180.636 163.441C181.998 162.889 182.693 160.742 183.744 159.346C184.249 158.673 184.26 158.249 183.575 157.674Z" fill="#0C5CAA"/>
</svg>
