<svg width="400" height="250" viewBox="0 0 400 250" fill="none" xmlns="http://www.w3.org/2000/svg">
<path d="M0 31.4C0 20.7646 0 15.4469 1.9709 11.3425C3.93884 7.24432 7.24432 3.93884 11.3425 1.9709C15.4469 0 20.7646 0 31.4 0H368.6C379.235 0 384.553 0 388.657 1.9709C392.756 3.93884 396.061 7.24432 398.029 11.3425C400 15.4469 400 20.7646 400 31.4V218.6C400 229.235 400 234.553 398.029 238.657C396.061 242.756 392.756 246.061 388.657 248.029C384.553 250 379.235 250 368.6 250H31.4C20.7646 250 15.4469 250 11.3425 248.029C7.24432 246.061 3.93884 242.756 1.9709 238.657C0 234.553 0 229.235 0 218.6V31.4Z" fill="#E5E5E5"/>
<path d="M127.907 177.697L128.621 174.505H174.365L173.651 177.697H127.907Z" fill="#C4151C"/>
<path d="M212.086 138.622C212.086 132.701 208.758 129.67 204.053 129.67C193.944 129.67 189.363 140.644 189.363 149.866C189.363 156.462 192.377 162.25 199.531 162.25C204.992 162.25 209.199 157.739 210.076 152.693H219.93C215.912 166.084 209.134 171.132 199.407 171.132C186.855 171.132 179.509 163.393 179.509 149.866C179.509 134.316 188.862 120.789 203.988 120.789C214.341 120.789 222.19 126.913 221.938 138.622H212.086Z" fill="#231F20"/>
<path d="M246.293 153.297C244.034 154.71 241.333 154.777 238.762 154.979C235.372 155.384 232.174 156.258 232.174 160.633C232.174 163.259 234.493 164.536 237.066 164.536C242.589 164.536 244.41 160.432 245.414 156.663L246.293 153.297ZM227.463 145.757C228.594 137.009 235.497 134.251 242.84 134.251C248.615 134.251 256.459 135.596 256.334 143.404C256.334 144.885 256.023 147.106 255.644 149.257L252.757 163.259C252.443 164.467 252.319 166.621 252.319 167.967C252.319 168.573 252.443 169.383 252.633 169.987H243.72V166.556C241.271 169.517 237.442 170.928 233.8 170.928C226.711 170.928 223.256 166.621 223.256 161.776C223.256 155.115 227.966 150.942 235.686 149.93C244.096 148.855 248.049 149.329 248.049 144.885C248.049 141.451 244.661 140.644 242.402 140.644C239.201 140.644 236.374 142.259 235.811 145.757H227.463Z" fill="#231F20"/>
<path d="M281.817 145.357C281.755 142.393 280.186 140.644 276.795 140.644C273.659 140.644 271.335 141.585 271.335 144.077C271.335 145.625 272.404 146.567 275.418 147.575L279.872 149.123C284.642 150.807 288.409 153.227 288.409 159.085C288.409 167.701 280.435 170.928 272.967 170.928C266.63 170.928 259.159 168.238 259.159 160.096V158.68H267.447V159.823C267.447 162.988 270.772 164.536 273.846 164.536C276.546 164.536 279.496 163.527 279.496 160.362C279.496 157.942 278.24 157.2 276.295 156.526L269.452 154.171C264.995 152.626 262.422 150.738 262.422 145.287C262.422 137.079 270.521 134.251 276.795 134.251C283.89 134.251 290.227 136.405 290.105 145.357H281.817Z" fill="#231F20"/>
<path d="M300.899 121.934H309.811L306.483 139.233H306.61C307.993 137.213 311.505 134.251 317.342 134.251C323.495 134.251 326.82 137.548 326.82 143.605C326.82 145.019 326.13 148.385 325.879 149.595L321.863 169.987H312.95L316.903 149.595C317.155 148.584 317.469 146.296 317.469 145.357C317.469 143.267 315.272 141.787 313.199 141.787C307.804 141.787 305.041 146.634 304.1 151.481L300.46 169.987H291.547L300.899 121.934Z" fill="#231F20"/>
<path d="M180.167 120.65L174.88 150.481C173.622 157.456 171.152 162.619 167.445 165.957C163.748 169.299 158.134 170.972 150.614 170.972C146.438 170.972 143.093 170.552 140.568 169.716C138.04 168.885 135.895 167.646 134.132 165.978C132.361 164.311 131.053 162.416 130.203 160.288C129.35 158.163 128.89 155.882 128.806 153.455C128.698 150.366 128.89 147.431 129.395 144.614L133.595 120.65H148.74L143.85 148.495C143.625 149.799 143.541 151.186 143.589 152.645C143.725 156.562 146.073 158.513 150.652 158.513C153.065 158.513 155.106 157.765 156.75 156.292C158.393 154.801 159.589 151.924 160.327 147.647L164.963 120.65H180.167Z" fill="#C4151C"/>
<path d="M125.322 177.496H92.6561C92.6561 177.496 71.4066 160.178 73.5725 144.439C73.5725 144.439 74.8998 137.599 83.9037 142.764L92.9053 148.962C92.9053 148.962 94.8244 150.882 93.3485 153.095C93.3485 153.095 91.5755 155.899 88.6237 154.866L80.952 150.587C80.952 150.587 76.2272 149.257 79.6222 152.801C79.6222 152.801 90.6914 160.032 95.4138 155.161C95.4138 155.161 96.8897 152.947 96.2979 150.733C96.2979 150.733 105.448 150.144 103.234 142.913C103.234 142.913 102.892 141.583 101.121 140.5L92.6585 134.994H119.814C119.814 134.994 128.892 133.605 126.702 124.759C126.702 124.759 120.207 120.923 123.748 111.921C123.748 111.921 126.257 107.199 128.619 107.345C128.619 107.345 130.241 107.05 130.095 110.002L129.946 118.414C129.946 118.414 132.16 120.774 131.717 124.759C131.717 124.759 125.969 146.186 127.273 156.364C127.273 156.364 128.113 160.856 129.491 162.626C129.491 162.626 125.521 176.906 125.322 177.496Z" fill="#F99D1C"/>
<path d="M77.7031 139.369C77.7031 139.369 72.2451 137.747 74.3104 132.73C74.3104 132.73 75.3431 129.924 78.2949 129.778C78.2949 129.778 81.5414 129.186 84.1984 133.173L90.0996 134.944L98.3656 140.845C98.3656 140.845 103.677 144.389 100.136 148.078C100.136 148.078 95.5623 149.7 93.4947 146.897L86.1152 141.88C86.1152 141.88 82.574 138.78 77.7031 139.369Z" fill="#F99D1C"/>
<path d="M82.7202 127.564C82.7202 127.564 74.7537 128.597 73.5725 125.645C73.5725 125.645 71.3587 120.628 75.6378 117.382C75.6378 117.382 79.179 113.987 82.7202 115.757C82.7202 115.757 87.5911 118.858 84.6393 121.956C84.6393 121.956 82.2793 124.169 79.4761 124.759L79.179 125.794L82.7202 126.089V127.564Z" fill="#F99D1C"/>
<path d="M82.4279 113.543C82.4279 113.543 73.2778 112.954 77.8517 105.575C77.8517 105.575 79.7708 103.215 82.2793 103.952L82.4279 113.543Z" fill="#F99D1C"/>
<path d="M106.241 62.2561C106.241 62.2561 107.001 62.6898 108.467 62.0021C108.467 62.0021 110.772 60.5023 110.772 60.1022L106.241 62.2561Z" stroke="#231F20" stroke-width="0.19575"/>
<path d="M106.241 62.2561C106.241 62.2561 108.337 63.1929 110.772 60.1021L106.241 62.2561Z" stroke="#231F20" stroke-width="0.19575"/>
<path d="M111.879 60.9168C111.879 65.0593 108.496 68.4232 104.327 68.4232C100.148 68.4232 96.7675 65.0593 96.7675 60.9168C96.7675 56.7742 100.148 53.4103 104.327 53.4103C108.496 53.4103 111.879 56.7742 111.879 60.9168Z" stroke="#231F20" stroke-width="0.46874" stroke-dasharray="0.2 0.29"/>
<path d="M114.308 60.9168C114.308 66.3939 109.837 70.8335 104.327 70.8335C98.8089 70.8335 94.3357 66.3939 94.3357 60.9168C94.3357 55.4397 98.8089 51 104.327 51C109.837 51 114.308 55.4397 114.308 60.9168Z" stroke="#231F20" stroke-width="0.619431" stroke-dasharray="0.39 0.29"/>
<path d="M104.015 62.1411C104.015 62.1411 104.533 62.4549 104.847 62.1411C104.847 62.1411 104.703 61.6858 105.529 61.8272C105.529 61.8272 106.795 62.2273 107.966 61.4271C107.966 61.4271 110.482 59.9728 110.757 58.7293C110.757 58.7293 108.565 58.8802 107.794 59.2228C107.794 59.2228 108.654 57.2749 108.913 56.7311C108.913 56.7311 109.083 56.3022 108.393 56.7311L106.763 57.5888C106.763 57.5888 106.967 55.9021 106.763 55.3893C106.763 55.3893 105.565 56.3022 105.177 56.9754C105.177 56.9754 104.533 54.8407 104.389 54.8407C104.389 54.8407 103.586 55.7272 103.586 56.8748C103.586 56.8748 102.098 55.4157 101.868 55.4157C101.868 55.4157 101.868 56.8173 101.868 57.6199C101.868 57.6199 100.024 56.3429 99.7217 56.6472C99.7217 56.6472 100.821 58.9497 101.039 59.1653C101.039 59.1653 98.0158 58.5208 97.8912 58.6502C97.8912 58.6502 100.036 62.6849 103.56 61.7122C103.56 61.7122 104.015 61.7673 104.015 62.1411Z" fill="#E0E1E2"/>
<path d="M104.015 62.1411C104.015 62.1411 104.533 62.4549 104.847 62.1411C104.847 62.1411 104.703 61.6859 105.529 61.8272C105.529 61.8272 106.795 62.2273 107.966 61.4271C107.966 61.4271 110.482 59.9728 110.757 58.7293C110.757 58.7293 108.565 58.8802 107.794 59.2228C107.794 59.2228 108.654 57.2749 108.913 56.7311C108.913 56.7311 109.083 56.3022 108.393 56.7311L106.763 57.5888C106.763 57.5888 106.967 55.9021 106.763 55.3893C106.763 55.3893 105.565 56.3022 105.177 56.9755C105.177 56.9755 104.533 54.8407 104.389 54.8407C104.389 54.8407 103.586 55.7272 103.586 56.8748C103.586 56.8748 102.098 55.4157 101.868 55.4157C101.868 55.4157 101.868 56.8173 101.868 57.62C101.868 57.62 100.024 56.3429 99.7217 56.6472C99.7217 56.6472 100.821 58.9497 101.039 59.1653C101.039 59.1653 98.0158 58.5208 97.8912 58.6502C97.8912 58.6502 100.036 62.685 103.56 61.7122C103.56 61.7122 104.015 61.7673 104.015 62.1411Z" stroke="#231F20" stroke-width="0.19575"/>
<path d="M103.157 59.7667V58.8491C103.157 58.8491 101.813 57.5625 100.723 57.3037L103.157 59.7667Z" fill="white"/>
<path d="M103.157 59.7667V58.8491C103.157 58.8491 101.813 57.5625 100.723 57.3037L103.157 59.7667Z" stroke="#231F20" stroke-width="0.10877"/>
<path d="M105.422 61.5924C105.422 61.5924 106.184 62.0261 107.652 61.3384C107.652 61.3384 109.955 59.8362 109.955 59.4337L105.422 61.5924Z" stroke="#231F20" stroke-width="0.19575"/>
<path d="M105.422 61.5924C105.422 61.5924 107.523 62.5244 109.955 59.4337L105.422 61.5924Z" stroke="#231F20" stroke-width="0.19575"/>
<path d="M102.927 59.8482L100.481 57.4043L101.67 59.4528L102.927 59.8482Z" fill="white" stroke="#231F20" stroke-width="0.19575"/>
<path d="M104.245 61.7673V56.1872C104.245 56.1872 103.217 59.4097 103.56 61.3768C103.56 61.3768 104.389 61.6284 104.245 61.7673Z" fill="white"/>
<path d="M104.245 61.7673V56.1872C104.245 56.1872 103.217 59.4097 103.56 61.3768C103.56 61.3768 104.389 61.6284 104.245 61.7673Z" stroke="#231F20" stroke-width="0.19575"/>
<path d="M104.578 61.8272V56.2447C104.578 56.2447 105.611 59.4696 105.266 61.4343C105.266 61.4343 104.437 61.6859 104.578 61.8272Z" fill="white"/>
<path d="M104.578 61.8272V56.2447C104.578 56.2447 105.611 59.4696 105.266 61.4343C105.266 61.4343 104.437 61.6858 104.578 61.8272Z" stroke="#231F20" stroke-width="0.19575"/>
<path d="M105.561 61.1396V60.567C105.561 60.567 107.906 59.3642 109.71 59.2228C109.71 59.2228 105.795 61.3768 105.561 61.1396Z" fill="white"/>
<path d="M105.561 61.1396V60.5669C105.561 60.5669 107.906 59.3642 109.71 59.2228C109.71 59.2228 105.795 61.3768 105.561 61.1396Z" stroke="#231F20" stroke-width="0.19575"/>
<path d="M102.41 57.9506L102.245 56.5011L103.157 58.4466L102.41 57.9506Z" fill="white" stroke="#231F20" stroke-width="0.19575"/>
<path d="M102.388 56.1968C102.606 56.1968 103.536 57.3636 103.536 57.3636L103.354 58.1638L102.388 56.1968Z" fill="white"/>
<path d="M102.388 56.1968C102.606 56.1968 103.536 57.3636 103.536 57.3636L103.354 58.1638L102.388 56.1968Z" stroke="#231F20" stroke-width="0.19575"/>
<path d="M108.294 57.5002L107.164 59.5918L105.707 60.1093L108.294 57.5002Z" fill="white" stroke="#231F20" stroke-width="0.19575"/>
<path d="M103.258 61.4103L98.7466 59.278C98.7466 59.278 101.727 62.5412 103.258 61.4103Z" fill="white"/>
<path d="M103.258 61.4103L98.7466 59.2779C98.7466 59.2779 101.727 62.5412 103.258 61.4103Z" stroke="#231F20" stroke-width="0.19575"/>
<path d="M103.273 61.1396V60.5094C103.273 60.5094 100.436 59.0791 99.0365 59.0791L103.273 61.1396Z" fill="white"/>
<path d="M103.273 61.1396V60.5095C103.273 60.5095 100.436 59.0791 99.0365 59.0791L103.273 61.1396Z" stroke="#231F20" stroke-width="0.19575"/>
<path d="M105.422 61.5924L109.955 59.4337C109.955 59.4337 107.353 62.3927 105.422 61.5924Z" fill="white"/>
<path d="M105.422 61.5924L109.955 59.4337C109.955 59.4337 107.353 62.3926 105.422 61.5924Z" stroke="#231F20" stroke-width="0.19575"/>
<path d="M105.529 59.9632V59.0192L107.906 57.275L105.529 59.9632Z" fill="white" stroke="#231F20" stroke-width="0.19575"/>
<path d="M105.678 58.4202L106.562 56.3309L106.452 57.8476L105.678 58.4202Z" fill="white" stroke="#231F20" stroke-width="0.19575"/>
<path d="M106.277 56.3573L105.448 58.3627C105.448 58.3627 105.017 57.8763 105.448 57.1887L106.277 56.3573Z" fill="white"/>
<path d="M106.277 56.3573L105.448 58.3627C105.448 58.3627 105.017 57.8763 105.448 57.1887L106.277 56.3573Z" stroke="#231F20" stroke-width="0.19575"/>
<path d="M98.4351 62.1962C98.4351 62.1962 98.9766 61.9398 99.923 62.3687C99.923 62.3687 101.468 61.7985 102.039 62.3687C102.039 62.3687 103.354 61.856 104.188 62.3687C104.188 62.3687 105.561 62.2273 105.678 62.1123C105.678 62.1123 106.562 62.5987 107.163 62.2848C107.163 62.2848 108.254 62.1674 108.853 62.4262C108.853 62.4262 109.394 62.5939 109.823 62.1722H110.4C110.4 62.1722 110.597 62.5987 110.168 62.7137L108.941 62.9725C108.941 62.9725 108.366 63.0875 107.992 62.7137C107.992 62.7137 106.22 63.2839 105.644 62.7137C105.644 62.7137 104.015 63.1713 103.56 62.7137C103.56 62.7137 102.542 62.6706 102.297 62.915C102.297 62.915 101.67 62.9725 101.382 62.685C101.382 62.685 100.565 62.6993 100.407 62.8575C100.407 62.8575 99.578 63.1234 99.0557 62.6035H98.5094L98.4351 62.1962Z" fill="#E0E1E2"/>
<path d="M98.4351 62.1962C98.4351 62.1962 98.9766 61.9398 99.923 62.3687C99.923 62.3687 101.468 61.7985 102.039 62.3687C102.039 62.3687 103.354 61.856 104.188 62.3687C104.188 62.3687 105.561 62.2273 105.678 62.1123C105.678 62.1123 106.562 62.5987 107.163 62.2848C107.163 62.2848 108.254 62.1674 108.853 62.4262C108.853 62.4262 109.394 62.5939 109.823 62.1722H110.4C110.4 62.1722 110.597 62.5987 110.168 62.7137L108.941 62.9725C108.941 62.9725 108.366 63.0875 107.992 62.7137C107.992 62.7137 106.22 63.2839 105.644 62.7137C105.644 62.7137 104.015 63.1713 103.56 62.7137C103.56 62.7137 102.542 62.6706 102.297 62.915C102.297 62.915 101.67 62.9725 101.382 62.685C101.382 62.685 100.565 62.6993 100.407 62.8575C100.407 62.8575 99.578 63.1234 99.0557 62.6035H98.5094L98.4351 62.1962Z" stroke="#231F20" stroke-width="0.19575"/>
<path d="M98.737 63.2624C98.737 63.2624 99.2401 63.0515 100.131 63.4037C100.131 63.4037 101.579 62.9341 102.122 63.4037C102.122 63.4037 103.354 62.9821 104.135 63.4037C104.135 63.4037 105.422 63.2839 105.529 63.1929C105.529 63.1929 106.363 63.593 106.926 63.3367C106.926 63.3367 107.949 63.2384 108.51 63.4517C108.51 63.4517 109.025 63.5858 109.42 63.2384H109.964C109.964 63.2384 110.154 63.593 109.749 63.6865L108.596 63.8973C108.596 63.8973 108.057 63.9907 107.71 63.6865C107.71 63.6865 106.04 64.1561 105.503 63.6865C105.503 63.6865 103.972 64.0626 103.543 63.6865C103.543 63.6865 102.587 63.6481 102.362 63.8518C102.362 63.8518 101.77 63.8973 101.502 63.6625C101.502 63.6625 100.735 63.6745 100.589 63.8015C100.589 63.8015 99.808 64.0219 99.3168 63.593H98.8089L98.737 63.2624Z" fill="#E0E1E2"/>
<path d="M98.737 63.2624C98.737 63.2624 99.2401 63.0515 100.131 63.4037C100.131 63.4037 101.579 62.9341 102.122 63.4037C102.122 63.4037 103.354 62.9821 104.135 63.4037C104.135 63.4037 105.422 63.2839 105.529 63.1929C105.529 63.1929 106.363 63.593 106.926 63.3367C106.926 63.3367 107.949 63.2384 108.51 63.4517C108.51 63.4517 109.025 63.5858 109.42 63.2384H109.964C109.964 63.2384 110.154 63.593 109.749 63.6865L108.596 63.8973C108.596 63.8973 108.057 63.9907 107.71 63.6865C107.71 63.6865 106.04 64.1561 105.503 63.6865C105.503 63.6865 103.972 64.0626 103.543 63.6865C103.543 63.6865 102.587 63.6481 102.362 63.8518C102.362 63.8518 101.77 63.8973 101.502 63.6625C101.502 63.6625 100.735 63.6745 100.589 63.8015C100.589 63.8015 99.808 64.0219 99.3168 63.593H98.8089L98.737 63.2624Z" stroke="#231F20" stroke-width="0.19575"/>
<path d="M99.7217 64.7287C99.7217 64.7287 100.139 64.9467 100.874 64.5802C100.874 64.5802 102.065 65.0641 102.503 64.5802C102.503 64.5802 103.522 65.0138 104.161 64.5802C104.161 64.5802 105.22 64.7023 105.307 64.8006C105.307 64.8006 105.992 64.3909 106.459 64.6544C106.459 64.6544 107.295 64.7527 107.76 64.5346C107.76 64.5346 108.182 64.3957 108.505 64.7527H108.953C108.953 64.7527 109.107 64.3909 108.776 64.295L107.827 64.077C107.827 64.077 107.386 63.9812 107.101 64.295C107.101 64.295 105.728 63.8135 105.287 64.295C105.287 64.295 104.03 63.9069 103.675 64.295C103.675 64.295 102.894 64.3286 102.702 64.1273C102.702 64.1273 102.218 64.077 101.998 64.319C101.998 64.319 101.37 64.307 101.25 64.1728C101.25 64.1728 100.608 63.95 100.208 64.3861H99.784L99.7217 64.7287Z" fill="#E0E1E2"/>
<path d="M99.7217 64.7287C99.7217 64.7287 100.139 64.9467 100.874 64.5801C100.874 64.5801 102.065 65.0641 102.503 64.5801C102.503 64.5801 103.522 65.0138 104.161 64.5801C104.161 64.5801 105.22 64.7023 105.307 64.8006C105.307 64.8006 105.992 64.3909 106.459 64.6544C106.459 64.6544 107.295 64.7526 107.76 64.5346C107.76 64.5346 108.182 64.3957 108.505 64.7526H108.953C108.953 64.7526 109.107 64.3909 108.776 64.295L107.827 64.077C107.827 64.077 107.386 63.9812 107.101 64.295C107.101 64.295 105.728 63.8134 105.287 64.295C105.287 64.295 104.03 63.9069 103.675 64.295C103.675 64.295 102.894 64.3286 102.702 64.1273C102.702 64.1273 102.218 64.077 101.998 64.319C101.998 64.319 101.37 64.307 101.25 64.1728C101.25 64.1728 100.608 63.95 100.208 64.3861H99.784L99.7217 64.7287Z" stroke="#231F20" stroke-width="0.19575"/>
<path d="M102.441 65.747C102.441 65.747 103.33 65.4618 103.986 65.747C103.986 65.747 104.533 65.9794 105.22 65.5768C105.22 65.5768 106.933 65.9794 107.137 65.7757C107.137 65.7757 108.16 65.7757 108.062 65.2318H107.451C107.451 65.2318 105.989 65.5457 105.503 65.0593C105.503 65.0593 104.245 65.4331 104.101 65.2917C104.101 65.2917 102.956 64.7167 102.386 65.2917C102.386 65.2917 100.843 64.8293 100.75 65.2917C100.75 65.2917 100.893 65.747 102.441 65.747Z" fill="#E0E1E2"/>
<path d="M102.441 65.747C102.441 65.747 103.33 65.4619 103.986 65.747C103.986 65.747 104.533 65.9794 105.22 65.5769C105.22 65.5769 106.933 65.9794 107.137 65.7757C107.137 65.7757 108.16 65.7757 108.062 65.2318H107.451C107.451 65.2318 105.989 65.5457 105.503 65.0593C105.503 65.0593 104.245 65.4331 104.101 65.2917C104.101 65.2917 102.956 64.7167 102.386 65.2917C102.386 65.2917 100.843 64.8293 100.75 65.2917C100.75 65.2917 100.893 65.747 102.441 65.747Z" stroke="#231F20" stroke-width="0.19575"/>
<path d="M102.901 66.1495C102.901 66.1495 102.558 66.4634 103.874 66.4634C103.874 66.4634 105.048 66.7581 106.021 66.2909C106.021 66.2909 105.989 65.8356 105.017 66.0632C105.017 66.0632 104.13 66.3196 103.874 66.0632C103.874 66.0632 102.901 65.9842 102.901 66.1495Z" fill="#E0E1E2"/>
<path d="M102.901 66.1495C102.901 66.1495 102.558 66.4634 103.874 66.4634C103.874 66.4634 105.048 66.7581 106.021 66.2908C106.021 66.2908 105.989 65.8356 105.017 66.0632C105.017 66.0632 104.13 66.3196 103.874 66.0632C103.874 66.0632 102.901 65.9842 102.901 66.1495Z" stroke="#231F20" stroke-width="0.19575"/>
<path d="M84.1985 114.923V73.4019C84.1985 73.4019 84.9867 64.156 94.0362 62.9749H116.666C116.666 62.9749 124.733 63.9572 124.927 73.6008V106.856C124.927 106.856 117.255 116.296 124.34 125.351C124.34 125.351 126.7 131.992 120.65 132.287H87.8858C87.8858 132.287 83.9038 132.287 85.5258 125.794C85.5258 125.794 90.9862 119.251 84.1985 114.923Z" fill="#231F20"/>
<path d="M89.5103 75.0264H118.877V102.182H89.5103V75.0264Z" fill="white"/>
<path d="M95.5624 71.4852C95.5624 72.2184 94.9658 72.8126 94.2326 72.8126C93.4995 72.8126 92.9053 72.2184 92.9053 71.4852C92.9053 70.7521 93.4995 70.1555 94.2326 70.1555C94.9658 70.1555 95.5624 70.7521 95.5624 71.4852Z" fill="white"/>
<path d="M91.2808 66.3196C91.2808 66.8084 90.8855 67.2061 90.3944 67.2061C89.908 67.2061 89.5103 66.8084 89.5103 66.3196C89.5103 65.8308 89.908 65.4331 90.3944 65.4331C90.8855 65.4331 91.2808 65.8308 91.2808 66.3196Z" fill="white"/>
<path d="M96.0008 108.232C96.0008 109.049 95.3395 109.708 94.5249 109.708H91.6738C90.8568 109.708 90.1979 109.049 90.1979 108.232C90.1979 107.417 90.8568 106.756 91.6738 106.756H94.5249C95.3395 106.756 96.0008 107.417 96.0008 108.232Z" fill="white"/>
<path d="M103.577 108.232C103.577 109.049 102.915 109.708 102.101 109.708H99.2473C98.4327 109.708 97.7714 109.049 97.7714 108.232C97.7714 107.417 98.4327 106.756 99.2473 106.756H102.101C102.915 106.756 103.577 107.417 103.577 108.232Z" fill="white"/>
<path d="M111.15 108.232C111.15 109.049 110.489 109.708 109.674 109.708H106.823C106.009 109.708 105.347 109.049 105.347 108.232C105.347 107.417 106.009 106.756 106.823 106.756H109.674C110.489 106.756 111.15 107.417 111.15 108.232Z" fill="white"/>
<path d="M118.726 108.232C118.726 109.049 118.065 109.708 117.25 109.708H114.397C113.582 109.708 112.921 109.049 112.921 108.232C112.921 107.417 113.582 106.756 114.397 106.756H117.25C118.065 106.756 118.726 107.417 118.726 108.232Z" fill="white"/>
<path d="M96.0008 114.135C96.0008 114.95 95.3395 115.609 94.5249 115.609H91.6738C90.8568 115.609 90.1979 114.95 90.1979 114.135C90.1979 113.321 90.8568 112.659 91.6738 112.659H94.5249C95.3395 112.659 96.0008 113.321 96.0008 114.135Z" fill="white"/>
<path d="M103.577 114.135C103.577 114.95 102.915 115.609 102.101 115.609H99.2473C98.4327 115.609 97.7714 114.95 97.7714 114.135C97.7714 113.321 98.4327 112.659 99.2473 112.659H102.101C102.915 112.659 103.577 113.321 103.577 114.135Z" fill="white"/>
<path d="M111.15 114.135C111.15 114.95 110.489 115.609 109.674 115.609H106.823C106.009 115.609 105.347 114.95 105.347 114.135C105.347 113.321 106.009 112.659 106.823 112.659H109.674C110.489 112.659 111.15 113.321 111.15 114.135Z" fill="white"/>
<path d="M118.726 114.135C118.726 114.95 118.065 115.609 117.25 115.609H114.397C113.582 115.609 112.921 114.95 112.921 114.135C112.921 113.321 113.582 112.659 114.397 112.659H117.25C118.065 112.659 118.726 113.321 118.726 114.135Z" fill="white"/>
<path d="M96.0008 120.036C96.0008 120.853 95.3395 121.512 94.5249 121.512H91.6738C90.8568 121.512 90.1979 120.853 90.1979 120.036C90.1979 119.224 90.8568 118.56 91.6738 118.56H94.5249C95.3395 118.56 96.0008 119.224 96.0008 120.036Z" fill="white"/>
<path d="M103.577 120.036C103.577 120.853 102.915 121.512 102.101 121.512H99.2473C98.4327 121.512 97.7714 120.853 97.7714 120.036C97.7714 119.224 98.4327 118.56 99.2473 118.56H102.101C102.915 118.56 103.577 119.224 103.577 120.036Z" fill="white"/>
<path d="M111.15 120.036C111.15 120.853 110.489 121.512 109.674 121.512H106.823C106.009 121.512 105.347 120.853 105.347 120.036C105.347 119.224 106.009 118.56 106.823 118.56H109.674C110.489 118.56 111.15 119.224 111.15 120.036Z" fill="white"/>
<path d="M118.726 120.036C118.726 120.853 118.065 121.512 117.25 121.512H114.397C113.582 121.512 112.921 120.853 112.921 120.036C112.921 119.224 113.582 118.56 114.397 118.56H117.25C118.065 118.56 118.726 119.224 118.726 120.036Z" fill="white"/>
<path d="M96.0008 125.94C96.0008 126.757 95.3395 127.416 94.5249 127.416H91.6738C90.8568 127.416 90.1979 126.757 90.1979 125.94C90.1979 125.128 90.8568 124.466 91.6738 124.466H94.5249C95.3395 124.466 96.0008 125.128 96.0008 125.94Z" fill="white"/>
<path d="M103.577 125.94C103.577 126.757 102.915 127.416 102.101 127.416H99.2473C98.4327 127.416 97.7714 126.757 97.7714 125.94C97.7714 125.128 98.4327 124.466 99.2473 124.466H102.101C102.915 124.466 103.577 125.128 103.577 125.94Z" fill="white"/>
<path d="M111.15 125.94C111.15 126.757 110.489 127.416 109.674 127.416H106.823C106.009 127.416 105.347 126.757 105.347 125.94C105.347 125.128 106.009 124.466 106.823 124.466H109.674C110.489 124.466 111.15 125.128 111.15 125.94Z" fill="white"/>
<path d="M118.726 125.94C118.726 126.757 118.065 127.416 117.25 127.416H114.397C113.582 127.416 112.921 126.757 112.921 125.94C112.921 125.128 113.582 124.466 114.397 124.466H117.25C118.065 124.466 118.726 125.128 118.726 125.94Z" fill="white"/>
<path d="M110.319 69.1971C110.319 70.3783 109.361 71.3367 108.179 71.3367H100.8C99.6187 71.3367 98.6603 70.3783 98.6603 69.1971C98.6603 68.0159 99.6187 67.0575 100.8 67.0575H108.179C109.361 67.0575 110.319 68.0159 110.319 69.1971Z" fill="white"/>
</svg>
